# xmcd
#
# Track frame offsets:
#	150
#	12847
#	26175
#	43201
#	61790
#	78112
#	92284
#	106064
#	120822
#	135731
#	151769
#	166473
#	184823
#	200869
#	214284
#	231292
#	246503
#	264264
#	280355
#	294846
#
# Disc length: 4156
#
# Revision: 1
# Processed by: cddbd v1.5.1PL0 Copyright (c) Steve Scherf et al.
# Submitted via: audiograbber 1.83.01
# Normalized: r0:DSETVAR1
#
DISCID=10103a14
DTITLE=Various Artist - RC40
DYEAR=1997
DGENRE=Country
TTITLE0=Mark Chesnutt - It's A Little Too Late
TTITLE1=Patty Loveless - She Drew A Broken Heart
TTITLE2=Clint Black - Half Way Up
TTITLE3=Faith Hill - I Can't Do That Any More
TTITLE4=Brooks and Dunn - A Man This Lonely
TTITLE5=Trisha Yearwood - Everybody Knows
TTITLE6=Rick Trevino - Running Out Of Reasons To Run
TTITLE7=Diamond Rio - Holdin'
TTITLE8=Deanna Carter - We Danced Anyway
TTITLE9=Travis Tritt - Where Corn Don't Grow
TTITLE10=Toby Keith - Me Too
TTITLE11=Mindy McCready - Maybe He'll Notice Her Now
TTITLE12=Daryl Singletary - Amen Kind Of Love
TTITLE13=Mary Chapin Carpenter - Let Me Into Your Heart
TTITLE14=John Berry - She's Taken A Shine
TTITLE15=Vince Gill - Pretty Little Adriana
TTITLE16=LeAnn Rimes - Unchained Melody
TTITLE17=George Strait - King Of The Mountain
TTITLE18=Bryan White - That's Another Song
TTITLE19=Reba McEntire - How Was I To Know
EXTD=
EXTT0=
EXTT1=
EXTT2=
EXTT3=
EXTT4=
EXTT5=
EXTT6=
EXTT7=
EXTT8=
EXTT9=
EXTT10=
EXTT11=
EXTT12=
EXTT13=
EXTT14=
EXTT15=
EXTT16=
EXTT17=
EXTT18=
EXTT19=
PLAYORDER=
